<?xml version="1.0" encoding="UTF-8" standalone="no"?>
<!DOCTYPE svg PUBLIC "-//W3C//DTD SVG 1.1//EN"
 "http://www.w3.org/Graphics/SVG/1.1/DTD/svg11.dtd">
<!-- Generated by graphviz version 2.43.0 (0)
 -->
<!-- Title: %3 Pages: 1 -->
<svg width="405pt" height="291pt"
 viewBox="0.00 0.00 404.69 291.00" xmlns="http://www.w3.org/2000/svg" xmlns:xlink="http://www.w3.org/1999/xlink">
<g id="graph0" class="graph" transform="scale(1 1) rotate(0) translate(4 287)">
<title>%3</title>
<polygon fill="white" stroke="transparent" points="-4,4 -4,-287 400.69,-287 400.69,4 -4,4"/>
<!-- Start -->
<g id="node1" class="node">
<title>Start</title>
<polygon fill="none" stroke="black" points="171.31,-283 117.31,-283 117.31,-247 171.31,-247 171.31,-283"/>
<text text-anchor="middle" x="144.31" y="-261.3" font-family="Times,serif" font-size="14.00">Start</text>
</g>
<!-- credit1 -->
<g id="node2" class="node">
<title>credit1</title>
<polygon fill="#f2f4ff" stroke="black" points="144.31,-210 0.19,-192 144.31,-174 288.42,-192 144.31,-210"/>
<text text-anchor="middle" x="144.31" y="-188.3" font-family="Times,serif" font-size="14.00" fill="#474973">Credit = Excellent?</text>
</g>
<!-- Start&#45;&gt;credit1 -->
<g id="edge1" class="edge">
<title>Start&#45;&gt;credit1</title>
<path fill="none" stroke="black" d="M144.31,-246.81C144.31,-238.79 144.31,-229.05 144.31,-220.07"/>
<polygon fill="black" stroke="black" points="147.81,-220.03 144.31,-210.03 140.81,-220.03 147.81,-220.03"/>
</g>
<!-- safe1 -->
<g id="node3" class="node">
<title>safe1</title>
<ellipse fill="#4b8f8c" stroke="black" cx="128.31" cy="-105" rx="31.4" ry="18"/>
<text text-anchor="middle" x="128.31" y="-101.3" font-family="Times,serif" font-size="14.00" fill="#ffffff">Safe</text>
</g>
<!-- credit1&#45;&gt;safe1 -->
<g id="edge2" class="edge">
<title>credit1&#45;&gt;safe1</title>
<path fill="none" stroke="black" d="M141.15,-174.21C138.95,-162.52 135.97,-146.69 133.43,-133.22"/>
<polygon fill="black" stroke="black" points="136.81,-132.23 131.52,-123.05 129.93,-133.52 136.81,-132.23"/>
<text text-anchor="middle" x="119.28" y="-152.16" font-family="Times,serif" font-size="14.00">True</text>
</g>
<!-- credit2 -->
<g id="node4" class="node">
<title>credit2</title>
<polygon fill="#f2f4ff" stroke="black" points="287.31,-123 178.05,-105 287.31,-87 396.57,-105 287.31,-123"/>
<text text-anchor="middle" x="287.31" y="-101.3" font-family="Times,serif" font-size="14.00" fill="#474973">Credit = Fair?</text>
</g>
<!-- credit1&#45;&gt;credit2 -->
<g id="edge3" class="edge">
<title>credit1&#45;&gt;credit2</title>
<path fill="none" stroke="black" d="M168.24,-176.77C192.28,-162.48 229.45,-140.39 255.86,-124.69"/>
<polygon fill="black" stroke="black" points="257.9,-127.55 264.71,-119.43 254.33,-121.53 257.9,-127.55"/>
<text text-anchor="middle" x="244.31" y="-144.8" font-family="Times,serif" font-size="14.00">False</text>
</g>
<!-- safe2 -->
<g id="node5" class="node">
<title>safe2</title>
<ellipse fill="#4b8f8c" stroke="black" cx="244.31" cy="-18" rx="31.4" ry="18"/>
<text text-anchor="middle" x="244.31" y="-14.3" font-family="Times,serif" font-size="14.00" fill="#ffffff">Safe</text>
</g>
<!-- credit2&#45;&gt;safe2 -->
<g id="edge4" class="edge">
<title>credit2&#45;&gt;safe2</title>
<path fill="none" stroke="black" d="M279.22,-88.01C273.05,-75.82 264.43,-58.78 257.3,-44.69"/>
<polygon fill="black" stroke="black" points="260.29,-42.84 252.65,-35.5 254.04,-46 260.29,-42.84"/>
<text text-anchor="middle" x="248.93" y="-65.53" font-family="Times,serif" font-size="14.00">True</text>
</g>
<!-- risky1 -->
<g id="node6" class="node">
<title>risky1</title>
<ellipse fill="#bb7e8c" stroke="black" cx="330.31" cy="-18" rx="36.29" ry="18"/>
<text text-anchor="middle" x="330.31" y="-14.3" font-family="Times,serif" font-size="14.00" fill="#ffffff">Risky</text>
</g>
<!-- credit2&#45;&gt;risky1 -->
<g id="edge5" class="edge">
<title>credit2&#45;&gt;risky1</title>
<path fill="none" stroke="black" d="M295.4,-88.01C301.52,-75.9 310.07,-59 317.17,-44.96"/>
<polygon fill="black" stroke="black" points="320.42,-46.29 321.81,-35.79 314.18,-43.13 320.42,-46.29"/>
<text text-anchor="middle" x="330.31" y="-57.8" font-family="Times,serif" font-size="14.00">False</text>
</g>
</g>
</svg>